<svg width="196" height="200" viewBox="10 50 196 200" role="img" xmlns="http://www.w3.org/2000/svg">
  <title>Water wheel</title>
  <desc>A stylized water wheel with spokes and paddles.</desc>

  <!-- Accent: app.css --accent (#635bff). Channel: deeper indigo (#3d36b8). Hub: #4b45c6 -->
  <g>
    <circle cx="108" cy="150" r="90" fill="none" stroke="#635bff" stroke-width="4" opacity="0.28"/>
    <circle cx="108" cy="150" r="85" fill="none" stroke="#635bff" stroke-width="1.5" opacity="0.4"/>

    <g stroke="#3d36b8" stroke-width="3">
      <line x1="108" y1="150" x2="108" y2="65"/>
      <line x1="108" y1="150" x2="168" y2="90"/>
      <line x1="108" y1="150" x2="193" y2="150"/>
      <line x1="108" y1="150" x2="23" y2="150"/>
      <line x1="108" y1="150" x2="48" y2="90"/>
    </g>

    <g stroke="#635bff" stroke-width="3.5" opacity="0.92">
      <line x1="108" y1="150" x2="168" y2="210"/>
      <line x1="108" y1="150" x2="108" y2="235"/>
      <line x1="108" y1="150" x2="48" y2="210"/>
    </g>

    <g fill="#635bff" opacity="0.78">
      <rect x="94" y="57" width="28" height="10" rx="2" transform="rotate(0 108 150)"/>
      <rect x="94" y="57" width="28" height="10" rx="2" transform="rotate(45 108 150)"/>
      <rect x="94" y="57" width="28" height="10" rx="2" transform="rotate(90 108 150)"/>
      <rect x="94" y="57" width="28" height="10" rx="2" transform="rotate(135 108 150)"/>
      <rect x="94" y="57" width="28" height="10" rx="2" transform="rotate(180 108 150)"/>
      <rect x="94" y="57" width="28" height="10" rx="2" transform="rotate(225 108 150)"/>
      <rect x="94" y="57" width="28" height="10" rx="2" transform="rotate(270 108 150)"/>
      <rect x="94" y="57" width="28" height="10" rx="2" transform="rotate(315 108 150)"/>
    </g>

    <circle cx="108" cy="150" r="18" fill="#635bff"/>
    <circle cx="108" cy="150" r="9" fill="#4b45c6"/>
  </g>
</svg>
